<?xml version="1.0"?>
<svg xmlns="http://www.w3.org/2000/svg" xmlns:xlink="http://www.w3.org/1999/xlink" viewBox="0 0 709.800000 124.000000" width="354.900000mm" height="62.000000mm" version="1.1">
<rect x="1.000000" y="1.000000" width="708.800000" height="123.000000" rx="0" ry="0" style="stroke:none;fill:#cccccc;"/>
<rect x="0.000000" y="0.000000" width="708.800000" height="123.000000" rx="0" ry="0" style="stroke:none;fill:#ffffff;"/>
<text x="10.000000" y="7.000000" font-family="Arial" font-size="7"></text>
<a xlink:href="lf-0x7ff354473ed0.svg">
<rect x="25.000000" y="25.000000" width="129.000000" height="24.000000" rx="0" ry="0" style="stroke:none;fill:#cccccc;"/>
<rect x="24.000000" y="24.000000" width="129.000000" height="24.000000" rx="0" ry="0" style="stroke:none;fill:#003366;"/>
</a>
<a xlink:href="lf-0x7ff354473ed0.svg">
<text x="88.500000" y="38.000000" font-family="Arial" font-size="7" text-anchor="middle" fill="#FFFFFF">lf_imptrain(h...,0.999f : *))</text>
</a>
<circle cx="26.000000" cy="26.000000" r="1"/>
<rect x="63.700000" y="67.000000" width="51.600000" height="24.000000" rx="0" ry="0" style="stroke:none;fill:#cccccc;"/>
<rect x="62.700000" y="66.000000" width="51.600000" height="24.000000" rx="0" ry="0" style="stroke:none;fill:#477881;"/>
<text x="88.500000" y="80.000000" font-family="Arial" font-size="7" text-anchor="middle" fill="#FFFFFF">button(gate)</text>
<circle cx="64.700000" cy="68.000000" r="1"/>
<line x1="53.700000" y1="57.000000" x2="53.700000" y2="99.000000"  style="stroke: black; stroke-linecap:round; stroke-width:0.25; stroke-dasharray:3,3;"/>
<line x1="53.700000" y1="99.000000" x2="123.300000" y2="99.000000"  style="stroke: black; stroke-linecap:round; stroke-width:0.25; stroke-dasharray:3,3;"/>
<line x1="123.300000" y1="99.000000" x2="123.300000" y2="57.000000"  style="stroke: black; stroke-linecap:round; stroke-width:0.25; stroke-dasharray:3,3;"/>
<line x1="53.700000" y1="57.000000" x2="58.700000" y2="57.000000"  style="stroke: black; stroke-linecap:round; stroke-width:0.25; stroke-dasharray:3,3;"/>
<line x1="78.050000" y1="57.000000" x2="123.300000" y2="57.000000"  style="stroke: black; stroke-linecap:round; stroke-width:0.25; stroke-dasharray:3,3;"/>
<text x="58.700000" y="59.000000" font-family="Arial" font-size="7">gate</text>
<rect x="170.000000" y="51.000000" width="24.000000" height="24.000000" rx="0" ry="0" style="stroke:none;fill:#cccccc;"/>
<rect x="169.000000" y="50.000000" width="24.000000" height="24.000000" rx="0" ry="0" style="stroke:none;fill:#4B71A1;"/>
<text x="181.000000" y="64.000000" font-family="Arial" font-size="7" text-anchor="middle" fill="#FFFFFF">*</text>
<circle cx="171.000000" cy="52.000000" r="1"/>
<line x1="166.000000" y1="57.000000" x2="169.000000" y2="58.000000"  transform="rotate(0.000000,169.000000,58.000000)" style="stroke: black; stroke-width:0.25;"/>
<line x1="166.000000" y1="59.000000" x2="169.000000" y2="58.000000"  transform="rotate(0.000000,169.000000,58.000000)" style="stroke: black; stroke-width:0.25;"/>
<line x1="166.000000" y1="65.000000" x2="169.000000" y2="66.000000"  transform="rotate(0.000000,169.000000,66.000000)" style="stroke: black; stroke-width:0.25;"/>
<line x1="166.000000" y1="67.000000" x2="169.000000" y2="66.000000"  transform="rotate(0.000000,169.000000,66.000000)" style="stroke: black; stroke-width:0.25;"/>
<a xlink:href="resonlp-0x7ff354477050.svg">
<rect x="202.000000" y="51.000000" width="141.900000" height="24.000000" rx="0" ry="0" style="stroke:none;fill:#cccccc;"/>
<rect x="201.000000" y="50.000000" width="141.900000" height="24.000000" rx="0" ry="0" style="stroke:none;fill:#003366;"/>
</a>
<a xlink:href="resonlp-0x7ff354477050.svg">
<text x="271.950000" y="64.000000" font-family="Arial" font-size="7" text-anchor="middle" fill="#FFFFFF">resonlp(hslid...,0.999f : *))(1)</text>
</a>
<circle cx="203.000000" cy="52.000000" r="1"/>
<line x1="198.000000" y1="61.000000" x2="201.000000" y2="62.000000"  transform="rotate(0.000000,201.000000,62.000000)" style="stroke: black; stroke-width:0.25;"/>
<line x1="198.000000" y1="63.000000" x2="201.000000" y2="62.000000"  transform="rotate(0.000000,201.000000,62.000000)" style="stroke: black; stroke-width:0.25;"/>
<a xlink:href="echo-0x7ff35447a4c0.svg">
<rect x="351.900000" y="51.000000" width="129.000000" height="24.000000" rx="0" ry="0" style="stroke:none;fill:#cccccc;"/>
<rect x="350.900000" y="50.000000" width="129.000000" height="24.000000" rx="0" ry="0" style="stroke:none;fill:#003366;"/>
</a>
<a xlink:href="echo-0x7ff35447a4c0.svg">
<text x="415.400000" y="64.000000" font-family="Arial" font-size="7" text-anchor="middle" fill="#FFFFFF">echo(0.400000...,0.999f : *))</text>
</a>
<circle cx="352.900000" cy="52.000000" r="1"/>
<line x1="347.900000" y1="61.000000" x2="350.900000" y2="62.000000"  transform="rotate(0.000000,350.900000,62.000000)" style="stroke: black; stroke-width:0.25;"/>
<line x1="347.900000" y1="63.000000" x2="350.900000" y2="62.000000"  transform="rotate(0.000000,350.900000,62.000000)" style="stroke: black; stroke-width:0.25;"/>
<a xlink:href="cubicnl-0x7ff35447cf10.svg">
<rect x="496.900000" y="35.000000" width="141.900000" height="24.000000" rx="0" ry="0" style="stroke:none;fill:#cccccc;"/>
<rect x="495.900000" y="34.000000" width="141.900000" height="24.000000" rx="0" ry="0" style="stroke:none;fill:#003366;"/>
</a>
<a xlink:href="cubicnl-0x7ff35447cf10.svg">
<text x="566.850000" y="48.000000" font-family="Arial" font-size="7" text-anchor="middle" fill="#FFFFFF">cubicnl(hslid...,0.999f : *))(0)</text>
</a>
<circle cx="497.900000" cy="36.000000" r="1"/>
<line x1="492.900000" y1="45.000000" x2="495.900000" y2="46.000000"  transform="rotate(0.000000,495.900000,46.000000)" style="stroke: black; stroke-width:0.25;"/>
<line x1="492.900000" y1="47.000000" x2="495.900000" y2="46.000000"  transform="rotate(0.000000,495.900000,46.000000)" style="stroke: black; stroke-width:0.25;"/>
<rect x="554.950000" y="67.000000" width="25.800000" height="24.000000" rx="0" ry="0" style="stroke:none;fill:#cccccc;"/>
<rect x="553.950000" y="66.000000" width="25.800000" height="24.000000" rx="0" ry="0" style="stroke:none;fill:#f44800;"/>
<text x="566.850000" y="80.000000" font-family="Arial" font-size="7" text-anchor="middle" fill="#FFFFFF">0.95</text>
<circle cx="555.950000" cy="68.000000" r="1"/>
<rect x="654.800000" y="51.000000" width="24.000000" height="24.000000" rx="0" ry="0" style="stroke:none;fill:#cccccc;"/>
<rect x="653.800000" y="50.000000" width="24.000000" height="24.000000" rx="0" ry="0" style="stroke:none;fill:#4B71A1;"/>
<text x="665.800000" y="64.000000" font-family="Arial" font-size="7" text-anchor="middle" fill="#FFFFFF">*</text>
<circle cx="655.800000" cy="52.000000" r="1"/>
<line x1="650.800000" y1="57.000000" x2="653.800000" y2="58.000000"  transform="rotate(0.000000,653.800000,58.000000)" style="stroke: black; stroke-width:0.25;"/>
<line x1="650.800000" y1="59.000000" x2="653.800000" y2="58.000000"  transform="rotate(0.000000,653.800000,58.000000)" style="stroke: black; stroke-width:0.25;"/>
<line x1="650.800000" y1="65.000000" x2="653.800000" y2="66.000000"  transform="rotate(0.000000,653.800000,66.000000)" style="stroke: black; stroke-width:0.25;"/>
<line x1="650.800000" y1="67.000000" x2="653.800000" y2="66.000000"  transform="rotate(0.000000,653.800000,66.000000)" style="stroke: black; stroke-width:0.25;"/>
<line x1="15.000000" y1="15.000000" x2="15.000000" y2="109.000000"  style="stroke: black; stroke-linecap:round; stroke-width:0.25; stroke-dasharray:3,3;"/>
<line x1="15.000000" y1="109.000000" x2="694.800000" y2="109.000000"  style="stroke: black; stroke-linecap:round; stroke-width:0.25; stroke-dasharray:3,3;"/>
<line x1="694.800000" y1="109.000000" x2="694.800000" y2="15.000000"  style="stroke: black; stroke-linecap:round; stroke-width:0.25; stroke-dasharray:3,3;"/>
<line x1="15.000000" y1="15.000000" x2="20.000000" y2="15.000000"  style="stroke: black; stroke-linecap:round; stroke-width:0.25; stroke-dasharray:3,3;"/>
<line x1="49.025000" y1="15.000000" x2="694.800000" y2="15.000000"  style="stroke: black; stroke-linecap:round; stroke-width:0.25; stroke-dasharray:3,3;"/>
<text x="20.000000" y="17.000000" font-family="Arial" font-size="7">process</text>
<line x1="696.800000" y1="61.000000" x2="699.800000" y2="62.000000"  transform="rotate(0.000000,699.800000,62.000000)" style="stroke: black; stroke-width:0.25;"/>
<line x1="696.800000" y1="63.000000" x2="699.800000" y2="62.000000"  transform="rotate(0.000000,699.800000,62.000000)" style="stroke: black; stroke-width:0.25;"/>
<line x1="114.300000" y1="78.000000" x2="118.300000" y2="78.000000"  style="stroke:black; stroke-linecap:round; stroke-width:0.25;"/>
<line x1="118.300000" y1="78.000000" x2="128.300000" y2="78.000000"  style="stroke:black; stroke-linecap:round; stroke-width:0.25;"/>
<line x1="128.300000" y1="78.000000" x2="157.000000" y2="78.000000"  style="stroke:black; stroke-linecap:round; stroke-width:0.25;"/>
<line x1="153.000000" y1="36.000000" x2="157.000000" y2="36.000000"  style="stroke:black; stroke-linecap:round; stroke-width:0.25;"/>
<line x1="157.000000" y1="36.000000" x2="165.000000" y2="36.000000"  style="stroke:black; stroke-linecap:round; stroke-width:0.25;"/>
<line x1="157.000000" y1="66.000000" x2="165.000000" y2="66.000000"  style="stroke:black; stroke-linecap:round; stroke-width:0.25;"/>
<line x1="157.000000" y1="78.000000" x2="157.000000" y2="66.000000"  style="stroke:black; stroke-linecap:round; stroke-width:0.25;"/>
<line x1="157.000000" y1="78.000000" x2="157.000000" y2="78.000000"  style="stroke:black; stroke-linecap:round; stroke-width:0.25;"/>
<line x1="165.000000" y1="36.000000" x2="165.000000" y2="58.000000"  style="stroke:black; stroke-linecap:round; stroke-width:0.25;"/>
<line x1="165.000000" y1="58.000000" x2="165.000000" y2="58.000000"  style="stroke:black; stroke-linecap:round; stroke-width:0.25;"/>
<line x1="165.000000" y1="58.000000" x2="169.000000" y2="58.000000"  style="stroke:black; stroke-linecap:round; stroke-width:0.25;"/>
<line x1="165.000000" y1="66.000000" x2="169.000000" y2="66.000000"  style="stroke:black; stroke-linecap:round; stroke-width:0.25;"/>
<line x1="193.000000" y1="62.000000" x2="197.000000" y2="62.000000"  style="stroke:black; stroke-linecap:round; stroke-width:0.25;"/>
<line x1="197.000000" y1="62.000000" x2="197.000000" y2="62.000000"  style="stroke:black; stroke-linecap:round; stroke-width:0.25;"/>
<line x1="197.000000" y1="62.000000" x2="201.000000" y2="62.000000"  style="stroke:black; stroke-linecap:round; stroke-width:0.25;"/>
<line x1="342.900000" y1="62.000000" x2="346.900000" y2="62.000000"  style="stroke:black; stroke-linecap:round; stroke-width:0.25;"/>
<line x1="346.900000" y1="62.000000" x2="346.900000" y2="62.000000"  style="stroke:black; stroke-linecap:round; stroke-width:0.25;"/>
<line x1="346.900000" y1="62.000000" x2="350.900000" y2="62.000000"  style="stroke:black; stroke-linecap:round; stroke-width:0.25;"/>
<line x1="479.900000" y1="62.000000" x2="483.900000" y2="62.000000"  style="stroke:black; stroke-linecap:round; stroke-width:0.25;"/>
<line x1="483.900000" y1="46.000000" x2="491.900000" y2="46.000000"  style="stroke:black; stroke-linecap:round; stroke-width:0.25;"/>
<line x1="483.900000" y1="62.000000" x2="483.900000" y2="46.000000"  style="stroke:black; stroke-linecap:round; stroke-width:0.25;"/>
<line x1="483.900000" y1="62.000000" x2="483.900000" y2="62.000000"  style="stroke:black; stroke-linecap:round; stroke-width:0.25;"/>
<line x1="491.900000" y1="46.000000" x2="495.900000" y2="46.000000"  style="stroke:black; stroke-linecap:round; stroke-width:0.25;"/>
<line x1="579.750000" y1="78.000000" x2="583.750000" y2="78.000000"  style="stroke:black; stroke-linecap:round; stroke-width:0.25;"/>
<line x1="583.750000" y1="78.000000" x2="641.800000" y2="78.000000"  style="stroke:black; stroke-linecap:round; stroke-width:0.25;"/>
<line x1="637.800000" y1="46.000000" x2="641.800000" y2="46.000000"  style="stroke:black; stroke-linecap:round; stroke-width:0.25;"/>
<line x1="641.800000" y1="66.000000" x2="649.800000" y2="66.000000"  style="stroke:black; stroke-linecap:round; stroke-width:0.25;"/>
<line x1="641.800000" y1="78.000000" x2="641.800000" y2="66.000000"  style="stroke:black; stroke-linecap:round; stroke-width:0.25;"/>
<line x1="641.800000" y1="78.000000" x2="641.800000" y2="78.000000"  style="stroke:black; stroke-linecap:round; stroke-width:0.25;"/>
<line x1="641.800000" y1="46.000000" x2="649.800000" y2="46.000000"  style="stroke:black; stroke-linecap:round; stroke-width:0.25;"/>
<line x1="649.800000" y1="46.000000" x2="649.800000" y2="58.000000"  style="stroke:black; stroke-linecap:round; stroke-width:0.25;"/>
<line x1="649.800000" y1="58.000000" x2="649.800000" y2="58.000000"  style="stroke:black; stroke-linecap:round; stroke-width:0.25;"/>
<line x1="649.800000" y1="58.000000" x2="653.800000" y2="58.000000"  style="stroke:black; stroke-linecap:round; stroke-width:0.25;"/>
<line x1="649.800000" y1="66.000000" x2="653.800000" y2="66.000000"  style="stroke:black; stroke-linecap:round; stroke-width:0.25;"/>
<line x1="677.800000" y1="62.000000" x2="681.800000" y2="62.000000"  style="stroke:black; stroke-linecap:round; stroke-width:0.25;"/>
<line x1="681.800000" y1="62.000000" x2="681.800000" y2="62.000000"  style="stroke:black; stroke-linecap:round; stroke-width:0.25;"/>
<line x1="681.800000" y1="62.000000" x2="685.800000" y2="62.000000"  style="stroke:black; stroke-linecap:round; stroke-width:0.25;"/>
<line x1="685.800000" y1="62.000000" x2="689.800000" y2="62.000000"  style="stroke:black; stroke-linecap:round; stroke-width:0.25;"/>
<line x1="689.800000" y1="62.000000" x2="699.800000" y2="62.000000"  style="stroke:black; stroke-linecap:round; stroke-width:0.25;"/>
</svg>
