<?xml version="1.0"?>
<svg xmlns="http://www.w3.org/2000/svg" xmlns:xlink="http://www.w3.org/1999/xlink" viewBox="0 0 606.600000 124.000000" width="303.300000mm" height="62.000000mm" version="1.1">
<rect x="1.000000" y="1.000000" width="605.600000" height="123.000000" rx="0" ry="0" style="stroke:none;fill:#cccccc;"/>
<rect x="0.000000" y="0.000000" width="605.600000" height="123.000000" rx="0" ry="0" style="stroke:none;fill:#ffffff;"/>
<text x="10.000000" y="7.000000" font-family="Arial" font-size="7"></text>
<a xlink:href="lf-0x7f686845f4b0.svg">
<rect x="25.000000" y="25.000000" width="129.000000" height="24.000000" rx="0" ry="0" style="stroke:none;fill:#cccccc;"/>
<rect x="24.000000" y="24.000000" width="129.000000" height="24.000000" rx="0" ry="0" style="stroke:none;fill:#003366;"/>
</a>
<a xlink:href="lf-0x7f686845f4b0.svg">
<text x="88.500000" y="38.000000" font-family="Arial" font-size="7" text-anchor="middle" fill="#FFFFFF">lf_imptrain(h...,0.999f : *))</text>
</a>
<circle cx="26.000000" cy="26.000000" r="1"/>
<rect x="63.700000" y="67.000000" width="51.600000" height="24.000000" rx="0" ry="0" style="stroke:none;fill:#cccccc;"/>
<rect x="62.700000" y="66.000000" width="51.600000" height="24.000000" rx="0" ry="0" style="stroke:none;fill:#477881;"/>
<text x="88.500000" y="80.000000" font-family="Arial" font-size="7" text-anchor="middle" fill="#FFFFFF">button(gate)</text>
<circle cx="64.700000" cy="68.000000" r="1"/>
<line x1="53.700000" y1="57.000000" x2="53.700000" y2="99.000000"  style="stroke: black; stroke-linecap:round; stroke-width:0.25; stroke-dasharray:3,3;"/>
<line x1="53.700000" y1="99.000000" x2="123.300000" y2="99.000000"  style="stroke: black; stroke-linecap:round; stroke-width:0.25; stroke-dasharray:3,3;"/>
<line x1="123.300000" y1="99.000000" x2="123.300000" y2="57.000000"  style="stroke: black; stroke-linecap:round; stroke-width:0.25; stroke-dasharray:3,3;"/>
<line x1="53.700000" y1="57.000000" x2="58.700000" y2="57.000000"  style="stroke: black; stroke-linecap:round; stroke-width:0.25; stroke-dasharray:3,3;"/>
<line x1="78.050000" y1="57.000000" x2="123.300000" y2="57.000000"  style="stroke: black; stroke-linecap:round; stroke-width:0.25; stroke-dasharray:3,3;"/>
<text x="58.700000" y="59.000000" font-family="Arial" font-size="7">gate</text>
<rect x="170.000000" y="51.000000" width="24.000000" height="24.000000" rx="0" ry="0" style="stroke:none;fill:#cccccc;"/>
<rect x="169.000000" y="50.000000" width="24.000000" height="24.000000" rx="0" ry="0" style="stroke:none;fill:#4B71A1;"/>
<text x="181.000000" y="64.000000" font-family="Arial" font-size="7" text-anchor="middle" fill="#FFFFFF">*</text>
<circle cx="171.000000" cy="52.000000" r="1"/>
<line x1="166.000000" y1="57.000000" x2="169.000000" y2="58.000000"  transform="rotate(0.000000,169.000000,58.000000)" style="stroke: black; stroke-width:0.25;"/>
<line x1="166.000000" y1="59.000000" x2="169.000000" y2="58.000000"  transform="rotate(0.000000,169.000000,58.000000)" style="stroke: black; stroke-width:0.25;"/>
<line x1="166.000000" y1="65.000000" x2="169.000000" y2="66.000000"  transform="rotate(0.000000,169.000000,66.000000)" style="stroke: black; stroke-width:0.25;"/>
<line x1="166.000000" y1="67.000000" x2="169.000000" y2="66.000000"  transform="rotate(0.000000,169.000000,66.000000)" style="stroke: black; stroke-width:0.25;"/>
<a xlink:href="resonlp-0x7f6868462630.svg">
<rect x="202.000000" y="51.000000" width="141.900000" height="24.000000" rx="0" ry="0" style="stroke:none;fill:#cccccc;"/>
<rect x="201.000000" y="50.000000" width="141.900000" height="24.000000" rx="0" ry="0" style="stroke:none;fill:#003366;"/>
</a>
<a xlink:href="resonlp-0x7f6868462630.svg">
<text x="271.950000" y="64.000000" font-family="Arial" font-size="7" text-anchor="middle" fill="#FFFFFF">resonlp(hslid...,0.999f : *))(1)</text>
</a>
<circle cx="203.000000" cy="52.000000" r="1"/>
<line x1="198.000000" y1="61.000000" x2="201.000000" y2="62.000000"  transform="rotate(0.000000,201.000000,62.000000)" style="stroke: black; stroke-width:0.25;"/>
<line x1="198.000000" y1="63.000000" x2="201.000000" y2="62.000000"  transform="rotate(0.000000,201.000000,62.000000)" style="stroke: black; stroke-width:0.25;"/>
<a xlink:href="echo-0x7f6868465c10.svg">
<rect x="351.900000" y="51.000000" width="25.800000" height="24.000000" rx="0" ry="0" style="stroke:none;fill:#cccccc;"/>
<rect x="350.900000" y="50.000000" width="25.800000" height="24.000000" rx="0" ry="0" style="stroke:none;fill:#003366;"/>
</a>
<a xlink:href="echo-0x7f6868465c10.svg">
<text x="363.800000" y="64.000000" font-family="Arial" font-size="7" text-anchor="middle" fill="#FFFFFF">echo</text>
</a>
<circle cx="352.900000" cy="52.000000" r="1"/>
<line x1="347.900000" y1="61.000000" x2="350.900000" y2="62.000000"  transform="rotate(0.000000,350.900000,62.000000)" style="stroke: black; stroke-width:0.25;"/>
<line x1="347.900000" y1="63.000000" x2="350.900000" y2="62.000000"  transform="rotate(0.000000,350.900000,62.000000)" style="stroke: black; stroke-width:0.25;"/>
<a xlink:href="cubicnl-0x7f6868468660.svg">
<rect x="393.700000" y="35.000000" width="141.900000" height="24.000000" rx="0" ry="0" style="stroke:none;fill:#cccccc;"/>
<rect x="392.700000" y="34.000000" width="141.900000" height="24.000000" rx="0" ry="0" style="stroke:none;fill:#003366;"/>
</a>
<a xlink:href="cubicnl-0x7f6868468660.svg">
<text x="463.650000" y="48.000000" font-family="Arial" font-size="7" text-anchor="middle" fill="#FFFFFF">cubicnl(hslid...,0.999f : *))(0)</text>
</a>
<circle cx="394.700000" cy="36.000000" r="1"/>
<line x1="389.700000" y1="45.000000" x2="392.700000" y2="46.000000"  transform="rotate(0.000000,392.700000,46.000000)" style="stroke: black; stroke-width:0.25;"/>
<line x1="389.700000" y1="47.000000" x2="392.700000" y2="46.000000"  transform="rotate(0.000000,392.700000,46.000000)" style="stroke: black; stroke-width:0.25;"/>
<rect x="451.750000" y="67.000000" width="25.800000" height="24.000000" rx="0" ry="0" style="stroke:none;fill:#cccccc;"/>
<rect x="450.750000" y="66.000000" width="25.800000" height="24.000000" rx="0" ry="0" style="stroke:none;fill:#f44800;"/>
<text x="463.650000" y="80.000000" font-family="Arial" font-size="7" text-anchor="middle" fill="#FFFFFF">0.95</text>
<circle cx="452.750000" cy="68.000000" r="1"/>
<rect x="551.600000" y="51.000000" width="24.000000" height="24.000000" rx="0" ry="0" style="stroke:none;fill:#cccccc;"/>
<rect x="550.600000" y="50.000000" width="24.000000" height="24.000000" rx="0" ry="0" style="stroke:none;fill:#4B71A1;"/>
<text x="562.600000" y="64.000000" font-family="Arial" font-size="7" text-anchor="middle" fill="#FFFFFF">*</text>
<circle cx="552.600000" cy="52.000000" r="1"/>
<line x1="547.600000" y1="57.000000" x2="550.600000" y2="58.000000"  transform="rotate(0.000000,550.600000,58.000000)" style="stroke: black; stroke-width:0.25;"/>
<line x1="547.600000" y1="59.000000" x2="550.600000" y2="58.000000"  transform="rotate(0.000000,550.600000,58.000000)" style="stroke: black; stroke-width:0.25;"/>
<line x1="547.600000" y1="65.000000" x2="550.600000" y2="66.000000"  transform="rotate(0.000000,550.600000,66.000000)" style="stroke: black; stroke-width:0.25;"/>
<line x1="547.600000" y1="67.000000" x2="550.600000" y2="66.000000"  transform="rotate(0.000000,550.600000,66.000000)" style="stroke: black; stroke-width:0.25;"/>
<line x1="15.000000" y1="15.000000" x2="15.000000" y2="109.000000"  style="stroke: black; stroke-linecap:round; stroke-width:0.25; stroke-dasharray:3,3;"/>
<line x1="15.000000" y1="109.000000" x2="591.600000" y2="109.000000"  style="stroke: black; stroke-linecap:round; stroke-width:0.25; stroke-dasharray:3,3;"/>
<line x1="591.600000" y1="109.000000" x2="591.600000" y2="15.000000"  style="stroke: black; stroke-linecap:round; stroke-width:0.25; stroke-dasharray:3,3;"/>
<line x1="15.000000" y1="15.000000" x2="20.000000" y2="15.000000"  style="stroke: black; stroke-linecap:round; stroke-width:0.25; stroke-dasharray:3,3;"/>
<line x1="49.025000" y1="15.000000" x2="591.600000" y2="15.000000"  style="stroke: black; stroke-linecap:round; stroke-width:0.25; stroke-dasharray:3,3;"/>
<text x="20.000000" y="17.000000" font-family="Arial" font-size="7">process</text>
<line x1="593.600000" y1="61.000000" x2="596.600000" y2="62.000000"  transform="rotate(0.000000,596.600000,62.000000)" style="stroke: black; stroke-width:0.25;"/>
<line x1="593.600000" y1="63.000000" x2="596.600000" y2="62.000000"  transform="rotate(0.000000,596.600000,62.000000)" style="stroke: black; stroke-width:0.25;"/>
<line x1="114.300000" y1="78.000000" x2="118.300000" y2="78.000000"  style="stroke:black; stroke-linecap:round; stroke-width:0.25;"/>
<line x1="118.300000" y1="78.000000" x2="128.300000" y2="78.000000"  style="stroke:black; stroke-linecap:round; stroke-width:0.25;"/>
<line x1="128.300000" y1="78.000000" x2="157.000000" y2="78.000000"  style="stroke:black; stroke-linecap:round; stroke-width:0.25;"/>
<line x1="153.000000" y1="36.000000" x2="157.000000" y2="36.000000"  style="stroke:black; stroke-linecap:round; stroke-width:0.25;"/>
<line x1="157.000000" y1="36.000000" x2="165.000000" y2="36.000000"  style="stroke:black; stroke-linecap:round; stroke-width:0.25;"/>
<line x1="157.000000" y1="66.000000" x2="165.000000" y2="66.000000"  style="stroke:black; stroke-linecap:round; stroke-width:0.25;"/>
<line x1="157.000000" y1="78.000000" x2="157.000000" y2="66.000000"  style="stroke:black; stroke-linecap:round; stroke-width:0.25;"/>
<line x1="157.000000" y1="78.000000" x2="157.000000" y2="78.000000"  style="stroke:black; stroke-linecap:round; stroke-width:0.25;"/>
<line x1="165.000000" y1="36.000000" x2="165.000000" y2="58.000000"  style="stroke:black; stroke-linecap:round; stroke-width:0.25;"/>
<line x1="165.000000" y1="58.000000" x2="165.000000" y2="58.000000"  style="stroke:black; stroke-linecap:round; stroke-width:0.25;"/>
<line x1="165.000000" y1="58.000000" x2="169.000000" y2="58.000000"  style="stroke:black; stroke-linecap:round; stroke-width:0.25;"/>
<line x1="165.000000" y1="66.000000" x2="169.000000" y2="66.000000"  style="stroke:black; stroke-linecap:round; stroke-width:0.25;"/>
<line x1="193.000000" y1="62.000000" x2="197.000000" y2="62.000000"  style="stroke:black; stroke-linecap:round; stroke-width:0.25;"/>
<line x1="197.000000" y1="62.000000" x2="197.000000" y2="62.000000"  style="stroke:black; stroke-linecap:round; stroke-width:0.25;"/>
<line x1="197.000000" y1="62.000000" x2="201.000000" y2="62.000000"  style="stroke:black; stroke-linecap:round; stroke-width:0.25;"/>
<line x1="342.900000" y1="62.000000" x2="346.900000" y2="62.000000"  style="stroke:black; stroke-linecap:round; stroke-width:0.25;"/>
<line x1="346.900000" y1="62.000000" x2="346.900000" y2="62.000000"  style="stroke:black; stroke-linecap:round; stroke-width:0.25;"/>
<line x1="346.900000" y1="62.000000" x2="350.900000" y2="62.000000"  style="stroke:black; stroke-linecap:round; stroke-width:0.25;"/>
<line x1="376.700000" y1="62.000000" x2="380.700000" y2="62.000000"  style="stroke:black; stroke-linecap:round; stroke-width:0.25;"/>
<line x1="380.700000" y1="46.000000" x2="388.700000" y2="46.000000"  style="stroke:black; stroke-linecap:round; stroke-width:0.25;"/>
<line x1="380.700000" y1="62.000000" x2="380.700000" y2="46.000000"  style="stroke:black; stroke-linecap:round; stroke-width:0.25;"/>
<line x1="380.700000" y1="62.000000" x2="380.700000" y2="62.000000"  style="stroke:black; stroke-linecap:round; stroke-width:0.25;"/>
<line x1="388.700000" y1="46.000000" x2="392.700000" y2="46.000000"  style="stroke:black; stroke-linecap:round; stroke-width:0.25;"/>
<line x1="476.550000" y1="78.000000" x2="480.550000" y2="78.000000"  style="stroke:black; stroke-linecap:round; stroke-width:0.25;"/>
<line x1="480.550000" y1="78.000000" x2="538.600000" y2="78.000000"  style="stroke:black; stroke-linecap:round; stroke-width:0.25;"/>
<line x1="534.600000" y1="46.000000" x2="538.600000" y2="46.000000"  style="stroke:black; stroke-linecap:round; stroke-width:0.25;"/>
<line x1="538.600000" y1="46.000000" x2="546.600000" y2="46.000000"  style="stroke:black; stroke-linecap:round; stroke-width:0.25;"/>
<line x1="538.600000" y1="66.000000" x2="546.600000" y2="66.000000"  style="stroke:black; stroke-linecap:round; stroke-width:0.25;"/>
<line x1="538.600000" y1="78.000000" x2="538.600000" y2="66.000000"  style="stroke:black; stroke-linecap:round; stroke-width:0.25;"/>
<line x1="538.600000" y1="78.000000" x2="538.600000" y2="78.000000"  style="stroke:black; stroke-linecap:round; stroke-width:0.25;"/>
<line x1="546.600000" y1="46.000000" x2="546.600000" y2="58.000000"  style="stroke:black; stroke-linecap:round; stroke-width:0.25;"/>
<line x1="546.600000" y1="58.000000" x2="546.600000" y2="58.000000"  style="stroke:black; stroke-linecap:round; stroke-width:0.25;"/>
<line x1="546.600000" y1="58.000000" x2="550.600000" y2="58.000000"  style="stroke:black; stroke-linecap:round; stroke-width:0.25;"/>
<line x1="546.600000" y1="66.000000" x2="550.600000" y2="66.000000"  style="stroke:black; stroke-linecap:round; stroke-width:0.25;"/>
<line x1="574.600000" y1="62.000000" x2="578.600000" y2="62.000000"  style="stroke:black; stroke-linecap:round; stroke-width:0.25;"/>
<line x1="578.600000" y1="62.000000" x2="578.600000" y2="62.000000"  style="stroke:black; stroke-linecap:round; stroke-width:0.25;"/>
<line x1="578.600000" y1="62.000000" x2="582.600000" y2="62.000000"  style="stroke:black; stroke-linecap:round; stroke-width:0.25;"/>
<line x1="582.600000" y1="62.000000" x2="586.600000" y2="62.000000"  style="stroke:black; stroke-linecap:round; stroke-width:0.25;"/>
<line x1="586.600000" y1="62.000000" x2="596.600000" y2="62.000000"  style="stroke:black; stroke-linecap:round; stroke-width:0.25;"/>
</svg>
