<?xml version="1.0"?>
<svg xmlns="http://www.w3.org/2000/svg" xmlns:xlink="http://www.w3.org/1999/xlink" viewBox="0 0 800.100000 380.000000" width="400.050000mm" height="190.000000mm" version="1.1">
<rect x="1.000000" y="1.000000" width="799.100000" height="379.000000" rx="0" ry="0" style="stroke:none;fill:#cccccc;"/>
<rect x="0.000000" y="0.000000" width="799.100000" height="379.000000" rx="0" ry="0" style="stroke:none;fill:#ffffff;"/>
<text x="10.000000" y="7.000000" font-family="Arial" font-size="7"></text>
<rect x="224.650000" y="297.000000" width="24.000000" height="24.000000" rx="0" ry="0" style="stroke:none;fill:#cccccc;"/>
<rect x="223.650000" y="296.000000" width="24.000000" height="24.000000" rx="0" ry="0" style="stroke:none;fill:#47945E;"/>
<text x="235.650000" y="310.000000" font-family="Arial" font-size="7" text-anchor="middle" fill="#FFFFFF">n</text>
<circle cx="225.650000" cy="298.000000" r="1"/>
<line x1="220.650000" y1="307.000000" x2="223.650000" y2="308.000000"  transform="rotate(0.000000,223.650000,308.000000)" style="stroke: black; stroke-width:0.25;"/>
<line x1="220.650000" y1="309.000000" x2="223.650000" y2="308.000000"  transform="rotate(0.000000,223.650000,308.000000)" style="stroke: black; stroke-width:0.25;"/>
<rect x="273.550000" y="281.000000" width="24.000000" height="24.000000" rx="0" ry="0" style="stroke:none;fill:#cccccc;"/>
<rect x="272.550000" y="280.000000" width="24.000000" height="24.000000" rx="0" ry="0" style="stroke:none;fill:#47945E;"/>
<text x="284.550000" y="294.000000" font-family="Arial" font-size="7" text-anchor="middle" fill="#FFFFFF">n</text>
<circle cx="274.550000" cy="282.000000" r="1"/>
<rect x="256.650000" y="313.000000" width="24.000000" height="24.000000" rx="0" ry="0" style="stroke:none;fill:#cccccc;"/>
<rect x="255.650000" y="312.000000" width="24.000000" height="24.000000" rx="0" ry="0" style="stroke:none;fill:#47945E;"/>
<text x="267.650000" y="326.000000" font-family="Arial" font-size="7" text-anchor="middle" fill="#FFFFFF">n</text>
<circle cx="257.650000" cy="314.000000" r="1"/>
<rect x="288.650000" y="313.000000" width="25.800000" height="24.000000" rx="0" ry="0" style="stroke:none;fill:#cccccc;"/>
<rect x="287.650000" y="312.000000" width="25.800000" height="24.000000" rx="0" ry="0" style="stroke:none;fill:#4B71A1;"/>
<text x="300.550000" y="326.000000" font-family="Arial" font-size="7" text-anchor="middle" fill="#FFFFFF">floor</text>
<circle cx="289.650000" cy="314.000000" r="1"/>
<line x1="284.650000" y1="323.000000" x2="287.650000" y2="324.000000"  transform="rotate(0.000000,287.650000,324.000000)" style="stroke: black; stroke-width:0.25;"/>
<line x1="284.650000" y1="325.000000" x2="287.650000" y2="324.000000"  transform="rotate(0.000000,287.650000,324.000000)" style="stroke: black; stroke-width:0.25;"/>
<rect x="330.450000" y="297.000000" width="24.000000" height="24.000000" rx="0" ry="0" style="stroke:none;fill:#cccccc;"/>
<rect x="329.450000" y="296.000000" width="24.000000" height="24.000000" rx="0" ry="0" style="stroke:none;fill:#4B71A1;"/>
<text x="341.450000" y="310.000000" font-family="Arial" font-size="7" text-anchor="middle" fill="#FFFFFF">-</text>
<circle cx="331.450000" cy="298.000000" r="1"/>
<line x1="326.450000" y1="303.000000" x2="329.450000" y2="304.000000"  transform="rotate(0.000000,329.450000,304.000000)" style="stroke: black; stroke-width:0.25;"/>
<line x1="326.450000" y1="305.000000" x2="329.450000" y2="304.000000"  transform="rotate(0.000000,329.450000,304.000000)" style="stroke: black; stroke-width:0.25;"/>
<line x1="326.450000" y1="311.000000" x2="329.450000" y2="312.000000"  transform="rotate(0.000000,329.450000,312.000000)" style="stroke: black; stroke-width:0.25;"/>
<line x1="326.450000" y1="313.000000" x2="329.450000" y2="312.000000"  transform="rotate(0.000000,329.450000,312.000000)" style="stroke: black; stroke-width:0.25;"/>
<line x1="214.650000" y1="271.000000" x2="214.650000" y2="345.000000"  style="stroke: black; stroke-linecap:round; stroke-width:0.25; stroke-dasharray:3,3;"/>
<line x1="214.650000" y1="345.000000" x2="362.450000" y2="345.000000"  style="stroke: black; stroke-linecap:round; stroke-width:0.25; stroke-dasharray:3,3;"/>
<line x1="362.450000" y1="345.000000" x2="362.450000" y2="271.000000"  style="stroke: black; stroke-linecap:round; stroke-width:0.25; stroke-dasharray:3,3;"/>
<line x1="214.650000" y1="271.000000" x2="219.650000" y2="271.000000"  style="stroke: black; stroke-linecap:round; stroke-width:0.25; stroke-dasharray:3,3;"/>
<line x1="248.675000" y1="271.000000" x2="362.450000" y2="271.000000"  style="stroke: black; stroke-linecap:round; stroke-width:0.25; stroke-dasharray:3,3;"/>
<text x="219.650000" y="273.000000" font-family="Arial" font-size="7">decimal</text>
<rect x="332.600000" y="191.000000" width="193.500000" height="24.000000" rx="0" ry="0" style="stroke:none;fill:#cccccc;"/>
<rect x="331.600000" y="190.000000" width="193.500000" height="24.000000" rx="0" ry="0" style="stroke:none;fill:#477881;"/>
<text x="428.350000" y="204.000000" font-family="Arial" font-size="7" text-anchor="middle" fill="#FFFFFF">hslider(impFreq, 11.0f, 2.0f, 20.0f, 0.01f)</text>
<circle cx="523.100000" cy="212.000000" r="1"/>
<rect x="280.800000" y="187.000000" width="25.800000" height="24.000000" rx="0" ry="0" style="stroke:none;fill:#cccccc;"/>
<rect x="279.800000" y="186.000000" width="25.800000" height="24.000000" rx="0" ry="0" style="stroke:none;fill:#f44800;"/>
<text x="292.700000" y="200.000000" font-family="Arial" font-size="7" text-anchor="middle" fill="#FFFFFF">0.001</text>
<circle cx="303.600000" cy="208.000000" r="1"/>
<rect x="240.800000" y="191.000000" width="24.000000" height="24.000000" rx="0" ry="0" style="stroke:none;fill:#cccccc;"/>
<rect x="239.800000" y="190.000000" width="24.000000" height="24.000000" rx="0" ry="0" style="stroke:none;fill:#4B71A1;"/>
<text x="251.800000" y="204.000000" font-family="Arial" font-size="7" text-anchor="middle" fill="#FFFFFF">*</text>
<circle cx="261.800000" cy="212.000000" r="1"/>
<line x1="266.800000" y1="205.000000" x2="263.800000" y2="206.000000"  transform="rotate(0.000000,263.800000,206.000000)" style="stroke: black; stroke-width:0.25;"/>
<line x1="266.800000" y1="207.000000" x2="263.800000" y2="206.000000"  transform="rotate(0.000000,263.800000,206.000000)" style="stroke: black; stroke-width:0.25;"/>
<line x1="266.800000" y1="197.000000" x2="263.800000" y2="198.000000"  transform="rotate(0.000000,263.800000,198.000000)" style="stroke: black; stroke-width:0.25;"/>
<line x1="266.800000" y1="199.000000" x2="263.800000" y2="198.000000"  transform="rotate(0.000000,263.800000,198.000000)" style="stroke: black; stroke-width:0.25;"/>
<rect x="171.900000" y="171.000000" width="24.000000" height="24.000000" rx="0" ry="0" style="stroke:none;fill:#cccccc;"/>
<rect x="170.900000" y="170.000000" width="24.000000" height="24.000000" rx="0" ry="0" style="stroke:none;fill:#4B71A1;"/>
<text x="182.900000" y="184.000000" font-family="Arial" font-size="7" text-anchor="middle" fill="#FFFFFF">+</text>
<circle cx="192.900000" cy="192.000000" r="1"/>
<line x1="197.900000" y1="185.000000" x2="194.900000" y2="186.000000"  transform="rotate(0.000000,194.900000,186.000000)" style="stroke: black; stroke-width:0.25;"/>
<line x1="197.900000" y1="187.000000" x2="194.900000" y2="186.000000"  transform="rotate(0.000000,194.900000,186.000000)" style="stroke: black; stroke-width:0.25;"/>
<line x1="197.900000" y1="177.000000" x2="194.900000" y2="178.000000"  transform="rotate(0.000000,194.900000,178.000000)" style="stroke: black; stroke-width:0.25;"/>
<line x1="197.900000" y1="179.000000" x2="194.900000" y2="178.000000"  transform="rotate(0.000000,194.900000,178.000000)" style="stroke: black; stroke-width:0.25;"/>
<rect x="151.000000" y="211.000000" width="25.800000" height="24.000000" rx="0" ry="0" style="stroke:none;fill:#cccccc;"/>
<rect x="150.000000" y="210.000000" width="25.800000" height="24.000000" rx="0" ry="0" style="stroke:none;fill:#f44800;"/>
<text x="162.900000" y="224.000000" font-family="Arial" font-size="7" text-anchor="middle" fill="#FFFFFF">0.999</text>
<circle cx="152.000000" cy="212.000000" r="1"/>
<rect x="192.800000" y="207.000000" width="24.000000" height="24.000000" rx="0" ry="0" style="stroke:none;fill:#cccccc;"/>
<rect x="191.800000" y="206.000000" width="24.000000" height="24.000000" rx="0" ry="0" style="stroke:none;fill:#4B71A1;"/>
<text x="203.800000" y="220.000000" font-family="Arial" font-size="7" text-anchor="middle" fill="#FFFFFF">*</text>
<circle cx="193.800000" cy="208.000000" r="1"/>
<line x1="188.800000" y1="213.000000" x2="191.800000" y2="214.000000"  transform="rotate(0.000000,191.800000,214.000000)" style="stroke: black; stroke-width:0.25;"/>
<line x1="188.800000" y1="215.000000" x2="191.800000" y2="214.000000"  transform="rotate(0.000000,191.800000,214.000000)" style="stroke: black; stroke-width:0.25;"/>
<line x1="188.800000" y1="221.000000" x2="191.800000" y2="222.000000"  transform="rotate(0.000000,191.800000,222.000000)" style="stroke: black; stroke-width:0.25;"/>
<line x1="188.800000" y1="223.000000" x2="191.800000" y2="222.000000"  transform="rotate(0.000000,191.800000,222.000000)" style="stroke: black; stroke-width:0.25;"/>
<line x1="148.000000" y1="182.000000" x2="148.000000" y2="186.000000"  style="stroke:black; stroke-linecap:round; stroke-width:0.25;"/>
<line x1="148.000000" y1="186.000000" x2="144.000000" y2="186.000000"  style="stroke:black; stroke-linecap:round; stroke-width:0.25;"/>
<line x1="144.000000" y1="186.000000" x2="144.000000" y2="182.000000"  style="stroke:black; stroke-linecap:round; stroke-width:0.25;"/>
<line x1="133.000000" y1="161.000000" x2="133.000000" y2="243.000000"  style="stroke: black; stroke-linecap:round; stroke-width:0.25; stroke-dasharray:3,3;"/>
<line x1="133.000000" y1="243.000000" x2="314.600000" y2="243.000000"  style="stroke: black; stroke-linecap:round; stroke-width:0.25; stroke-dasharray:3,3;"/>
<line x1="314.600000" y1="243.000000" x2="314.600000" y2="161.000000"  style="stroke: black; stroke-linecap:round; stroke-width:0.25; stroke-dasharray:3,3;"/>
<line x1="133.000000" y1="161.000000" x2="138.000000" y2="161.000000"  style="stroke: black; stroke-linecap:round; stroke-width:0.25; stroke-dasharray:3,3;"/>
<line x1="157.350000" y1="161.000000" x2="314.600000" y2="161.000000"  style="stroke: black; stroke-linecap:round; stroke-width:0.25; stroke-dasharray:3,3;"/>
<text x="138.000000" y="163.000000" font-family="Arial" font-size="7">smoo</text>
<line x1="123.000000" y1="151.000000" x2="123.000000" y2="253.000000"  style="stroke: black; stroke-linecap:round; stroke-width:0.25; stroke-dasharray:3,3;"/>
<line x1="123.000000" y1="253.000000" x2="534.100000" y2="253.000000"  style="stroke: black; stroke-linecap:round; stroke-width:0.25; stroke-dasharray:3,3;"/>
<line x1="534.100000" y1="253.000000" x2="534.100000" y2="151.000000"  style="stroke: black; stroke-linecap:round; stroke-width:0.25; stroke-dasharray:3,3;"/>
<line x1="123.000000" y1="151.000000" x2="128.000000" y2="151.000000"  style="stroke: black; stroke-linecap:round; stroke-width:0.25; stroke-dasharray:3,3;"/>
<line x1="157.025000" y1="151.000000" x2="534.100000" y2="151.000000"  style="stroke: black; stroke-linecap:round; stroke-width:0.25; stroke-dasharray:3,3;"/>
<text x="128.000000" y="153.000000" font-family="Arial" font-size="7">impFreq</text>
<rect x="336.650000" y="109.000000" width="25.800000" height="24.000000" rx="0" ry="0" style="stroke:none;fill:#cccccc;"/>
<rect x="335.650000" y="108.000000" width="25.800000" height="24.000000" rx="0" ry="0" style="stroke:none;fill:#f44800;"/>
<text x="348.550000" y="122.000000" font-family="Arial" font-size="7" text-anchor="middle" fill="#FFFFFF">192000</text>
<circle cx="359.450000" cy="130.000000" r="1"/>
<rect x="357.550000" y="77.000000" width="24.000000" height="24.000000" rx="0" ry="0" style="stroke:none;fill:#cccccc;"/>
<rect x="356.550000" y="76.000000" width="24.000000" height="24.000000" rx="0" ry="0" style="stroke:none;fill:#f44800;"/>
<text x="368.550000" y="90.000000" font-family="Arial" font-size="7" text-anchor="middle" fill="#FFFFFF">1</text>
<circle cx="378.550000" cy="98.000000" r="1"/>
<rect x="337.300000" y="45.000000" width="64.500000" height="24.000000" rx="0" ry="0" style="stroke:none;fill:#cccccc;"/>
<rect x="336.300000" y="44.000000" width="64.500000" height="24.000000" rx="0" ry="0" style="stroke:none;fill:#4B71A1;"/>
<text x="368.550000" y="58.000000" font-family="Arial" font-size="7" text-anchor="middle" fill="#FFFFFF">fSamplingFreq</text>
<circle cx="398.800000" cy="66.000000" r="1"/>
<rect x="297.300000" y="61.000000" width="24.000000" height="24.000000" rx="0" ry="0" style="stroke:none;fill:#cccccc;"/>
<rect x="296.300000" y="60.000000" width="24.000000" height="24.000000" rx="0" ry="0" style="stroke:none;fill:#4B71A1;"/>
<text x="308.300000" y="74.000000" font-family="Arial" font-size="7" text-anchor="middle" fill="#FFFFFF">max</text>
<circle cx="318.300000" cy="82.000000" r="1"/>
<line x1="323.300000" y1="75.000000" x2="320.300000" y2="76.000000"  transform="rotate(0.000000,320.300000,76.000000)" style="stroke: black; stroke-width:0.25;"/>
<line x1="323.300000" y1="77.000000" x2="320.300000" y2="76.000000"  transform="rotate(0.000000,320.300000,76.000000)" style="stroke: black; stroke-width:0.25;"/>
<line x1="323.300000" y1="67.000000" x2="320.300000" y2="68.000000"  transform="rotate(0.000000,320.300000,68.000000)" style="stroke: black; stroke-width:0.25;"/>
<line x1="323.300000" y1="69.000000" x2="320.300000" y2="68.000000"  transform="rotate(0.000000,320.300000,68.000000)" style="stroke: black; stroke-width:0.25;"/>
<rect x="257.300000" y="77.000000" width="24.000000" height="24.000000" rx="0" ry="0" style="stroke:none;fill:#cccccc;"/>
<rect x="256.300000" y="76.000000" width="24.000000" height="24.000000" rx="0" ry="0" style="stroke:none;fill:#4B71A1;"/>
<text x="268.300000" y="90.000000" font-family="Arial" font-size="7" text-anchor="middle" fill="#FFFFFF">min</text>
<circle cx="278.300000" cy="98.000000" r="1"/>
<line x1="283.300000" y1="91.000000" x2="280.300000" y2="92.000000"  transform="rotate(0.000000,280.300000,92.000000)" style="stroke: black; stroke-width:0.25;"/>
<line x1="283.300000" y1="93.000000" x2="280.300000" y2="92.000000"  transform="rotate(0.000000,280.300000,92.000000)" style="stroke: black; stroke-width:0.25;"/>
<line x1="283.300000" y1="83.000000" x2="280.300000" y2="84.000000"  transform="rotate(0.000000,280.300000,84.000000)" style="stroke: black; stroke-width:0.25;"/>
<line x1="283.300000" y1="85.000000" x2="280.300000" y2="84.000000"  transform="rotate(0.000000,280.300000,84.000000)" style="stroke: black; stroke-width:0.25;"/>
<line x1="247.300000" y1="35.000000" x2="247.300000" y2="141.000000"  style="stroke: black; stroke-linecap:round; stroke-width:0.25; stroke-dasharray:3,3;"/>
<line x1="247.300000" y1="141.000000" x2="409.800000" y2="141.000000"  style="stroke: black; stroke-linecap:round; stroke-width:0.25; stroke-dasharray:3,3;"/>
<line x1="409.800000" y1="141.000000" x2="409.800000" y2="35.000000"  style="stroke: black; stroke-linecap:round; stroke-width:0.25; stroke-dasharray:3,3;"/>
<line x1="247.300000" y1="35.000000" x2="252.300000" y2="35.000000"  style="stroke: black; stroke-linecap:round; stroke-width:0.25; stroke-dasharray:3,3;"/>
<line x1="265.200000" y1="35.000000" x2="409.800000" y2="35.000000"  style="stroke: black; stroke-linecap:round; stroke-width:0.25; stroke-dasharray:3,3;"/>
<text x="252.300000" y="37.000000" font-family="Arial" font-size="7">SR</text>
<rect x="83.000000" y="133.000000" width="24.000000" height="24.000000" rx="0" ry="0" style="stroke:none;fill:#cccccc;"/>
<rect x="82.000000" y="132.000000" width="24.000000" height="24.000000" rx="0" ry="0" style="stroke:none;fill:#4B71A1;"/>
<text x="94.000000" y="146.000000" font-family="Arial" font-size="7" text-anchor="middle" fill="#FFFFFF">/</text>
<circle cx="104.000000" cy="154.000000" r="1"/>
<line x1="109.000000" y1="147.000000" x2="106.000000" y2="148.000000"  transform="rotate(0.000000,106.000000,148.000000)" style="stroke: black; stroke-width:0.25;"/>
<line x1="109.000000" y1="149.000000" x2="106.000000" y2="148.000000"  transform="rotate(0.000000,106.000000,148.000000)" style="stroke: black; stroke-width:0.25;"/>
<line x1="109.000000" y1="139.000000" x2="106.000000" y2="140.000000"  transform="rotate(0.000000,106.000000,140.000000)" style="stroke: black; stroke-width:0.25;"/>
<line x1="109.000000" y1="141.000000" x2="106.000000" y2="140.000000"  transform="rotate(0.000000,106.000000,140.000000)" style="stroke: black; stroke-width:0.25;"/>
<rect x="43.000000" y="137.000000" width="24.000000" height="24.000000" rx="0" ry="0" style="stroke:none;fill:#cccccc;"/>
<rect x="42.000000" y="136.000000" width="24.000000" height="24.000000" rx="0" ry="0" style="stroke:none;fill:#4B71A1;"/>
<text x="54.000000" y="150.000000" font-family="Arial" font-size="7" text-anchor="middle" fill="#FFFFFF">+</text>
<circle cx="64.000000" cy="158.000000" r="1"/>
<line x1="69.000000" y1="151.000000" x2="66.000000" y2="152.000000"  transform="rotate(0.000000,66.000000,152.000000)" style="stroke: black; stroke-width:0.25;"/>
<line x1="69.000000" y1="153.000000" x2="66.000000" y2="152.000000"  transform="rotate(0.000000,66.000000,152.000000)" style="stroke: black; stroke-width:0.25;"/>
<line x1="69.000000" y1="143.000000" x2="66.000000" y2="144.000000"  transform="rotate(0.000000,66.000000,144.000000)" style="stroke: black; stroke-width:0.25;"/>
<line x1="69.000000" y1="145.000000" x2="66.000000" y2="144.000000"  transform="rotate(0.000000,66.000000,144.000000)" style="stroke: black; stroke-width:0.25;"/>
<line x1="537.100000" y1="308.000000" x2="537.100000" y2="304.000000"  style="stroke:black; stroke-linecap:round; stroke-width:0.25;"/>
<line x1="537.100000" y1="304.000000" x2="541.100000" y2="304.000000"  style="stroke:black; stroke-linecap:round; stroke-width:0.25;"/>
<line x1="541.100000" y1="304.000000" x2="541.100000" y2="308.000000"  style="stroke:black; stroke-linecap:round; stroke-width:0.25;"/>
<line x1="25.000000" y1="25.000000" x2="25.000000" y2="355.000000"  style="stroke: black; stroke-linecap:round; stroke-width:0.25; stroke-dasharray:3,3;"/>
<line x1="25.000000" y1="355.000000" x2="552.100000" y2="355.000000"  style="stroke: black; stroke-linecap:round; stroke-width:0.25; stroke-dasharray:3,3;"/>
<line x1="552.100000" y1="355.000000" x2="552.100000" y2="25.000000"  style="stroke: black; stroke-linecap:round; stroke-width:0.25; stroke-dasharray:3,3;"/>
<line x1="25.000000" y1="25.000000" x2="30.000000" y2="25.000000"  style="stroke: black; stroke-linecap:round; stroke-width:0.25; stroke-dasharray:3,3;"/>
<line x1="129.975000" y1="25.000000" x2="552.100000" y2="25.000000"  style="stroke: black; stroke-linecap:round; stroke-width:0.25; stroke-dasharray:3,3;"/>
<text x="30.000000" y="27.000000" font-family="Arial" font-size="7">lf_sawpos(hsl...,0.999f : *))</text>
<rect x="665.100000" y="167.000000" width="24.000000" height="24.000000" rx="0" ry="0" style="stroke:none;fill:#cccccc;"/>
<rect x="664.100000" y="166.000000" width="24.000000" height="24.000000" rx="0" ry="0" style="stroke:none;fill:#4B71A1;"/>
<text x="676.100000" y="180.000000" font-family="Arial" font-size="7" text-anchor="middle" fill="#FFFFFF">mem</text>
<circle cx="666.100000" cy="168.000000" r="1"/>
<line x1="661.100000" y1="177.000000" x2="664.100000" y2="178.000000"  transform="rotate(0.000000,664.100000,178.000000)" style="stroke: black; stroke-width:0.25;"/>
<line x1="661.100000" y1="179.000000" x2="664.100000" y2="178.000000"  transform="rotate(0.000000,664.100000,178.000000)" style="stroke: black; stroke-width:0.25;"/>
<rect x="705.100000" y="163.000000" width="24.000000" height="24.000000" rx="0" ry="0" style="stroke:none;fill:#cccccc;"/>
<rect x="704.100000" y="162.000000" width="24.000000" height="24.000000" rx="0" ry="0" style="stroke:none;fill:#4B71A1;"/>
<text x="716.100000" y="176.000000" font-family="Arial" font-size="7" text-anchor="middle" fill="#FFFFFF">-</text>
<circle cx="706.100000" cy="164.000000" r="1"/>
<line x1="701.100000" y1="169.000000" x2="704.100000" y2="170.000000"  transform="rotate(0.000000,704.100000,170.000000)" style="stroke: black; stroke-width:0.25;"/>
<line x1="701.100000" y1="171.000000" x2="704.100000" y2="170.000000"  transform="rotate(0.000000,704.100000,170.000000)" style="stroke: black; stroke-width:0.25;"/>
<line x1="701.100000" y1="177.000000" x2="704.100000" y2="178.000000"  transform="rotate(0.000000,704.100000,178.000000)" style="stroke: black; stroke-width:0.25;"/>
<line x1="701.100000" y1="179.000000" x2="704.100000" y2="178.000000"  transform="rotate(0.000000,704.100000,178.000000)" style="stroke: black; stroke-width:0.25;"/>
<rect x="685.100000" y="199.000000" width="24.000000" height="24.000000" rx="0" ry="0" style="stroke:none;fill:#cccccc;"/>
<rect x="684.100000" y="198.000000" width="24.000000" height="24.000000" rx="0" ry="0" style="stroke:none;fill:#f44800;"/>
<text x="696.100000" y="212.000000" font-family="Arial" font-size="7" text-anchor="middle" fill="#FFFFFF">0</text>
<circle cx="686.100000" cy="200.000000" r="1"/>
<rect x="745.100000" y="179.000000" width="24.000000" height="24.000000" rx="0" ry="0" style="stroke:none;fill:#cccccc;"/>
<rect x="744.100000" y="178.000000" width="24.000000" height="24.000000" rx="0" ry="0" style="stroke:none;fill:#4B71A1;"/>
<text x="756.100000" y="192.000000" font-family="Arial" font-size="7" text-anchor="middle" fill="#FFFFFF">&lt;</text>
<circle cx="746.100000" cy="180.000000" r="1"/>
<line x1="741.100000" y1="185.000000" x2="744.100000" y2="186.000000"  transform="rotate(0.000000,744.100000,186.000000)" style="stroke: black; stroke-width:0.25;"/>
<line x1="741.100000" y1="187.000000" x2="744.100000" y2="186.000000"  transform="rotate(0.000000,744.100000,186.000000)" style="stroke: black; stroke-width:0.25;"/>
<line x1="741.100000" y1="193.000000" x2="744.100000" y2="194.000000"  transform="rotate(0.000000,744.100000,194.000000)" style="stroke: black; stroke-width:0.25;"/>
<line x1="741.100000" y1="195.000000" x2="744.100000" y2="194.000000"  transform="rotate(0.000000,744.100000,194.000000)" style="stroke: black; stroke-width:0.25;"/>
<line x1="15.000000" y1="15.000000" x2="15.000000" y2="365.000000"  style="stroke: black; stroke-linecap:round; stroke-width:0.25; stroke-dasharray:3,3;"/>
<line x1="15.000000" y1="365.000000" x2="785.100000" y2="365.000000"  style="stroke: black; stroke-linecap:round; stroke-width:0.25; stroke-dasharray:3,3;"/>
<line x1="785.100000" y1="365.000000" x2="785.100000" y2="15.000000"  style="stroke: black; stroke-linecap:round; stroke-width:0.25; stroke-dasharray:3,3;"/>
<line x1="15.000000" y1="15.000000" x2="20.000000" y2="15.000000"  style="stroke: black; stroke-linecap:round; stroke-width:0.25; stroke-dasharray:3,3;"/>
<line x1="49.025000" y1="15.000000" x2="785.100000" y2="15.000000"  style="stroke: black; stroke-linecap:round; stroke-width:0.25; stroke-dasharray:3,3;"/>
<text x="20.000000" y="17.000000" font-family="Arial" font-size="7">process</text>
<line x1="787.100000" y1="189.000000" x2="790.100000" y2="190.000000"  transform="rotate(0.000000,790.100000,190.000000)" style="stroke: black; stroke-width:0.25;"/>
<line x1="787.100000" y1="191.000000" x2="790.100000" y2="190.000000"  transform="rotate(0.000000,790.100000,190.000000)" style="stroke: black; stroke-width:0.25;"/>
<line x1="38.000000" y1="148.000000" x2="38.000000" y2="148.000000"  style="stroke:black; stroke-linecap:round; stroke-width:0.25;"/>
<line x1="38.000000" y1="148.000000" x2="38.000000" y2="308.000000"  style="stroke:black; stroke-linecap:round; stroke-width:0.25;"/>
<line x1="38.000000" y1="308.000000" x2="38.000000" y2="308.000000"  style="stroke:black; stroke-linecap:round; stroke-width:0.25;"/>
<line x1="38.000000" y1="308.000000" x2="209.650000" y2="308.000000"  style="stroke:black; stroke-linecap:round; stroke-width:0.25;"/>
<line x1="42.000000" y1="148.000000" x2="38.000000" y2="148.000000"  style="stroke:black; stroke-linecap:round; stroke-width:0.25;"/>
<line x1="70.000000" y1="144.000000" x2="66.000000" y2="144.000000"  style="stroke:black; stroke-linecap:round; stroke-width:0.25;"/>
<line x1="70.000000" y1="152.000000" x2="66.000000" y2="152.000000"  style="stroke:black; stroke-linecap:round; stroke-width:0.25;"/>
<line x1="70.000000" y1="152.000000" x2="70.000000" y2="152.000000"  style="stroke:black; stroke-linecap:round; stroke-width:0.25;"/>
<line x1="70.000000" y1="262.000000" x2="70.000000" y2="152.000000"  style="stroke:black; stroke-linecap:round; stroke-width:0.25;"/>
<line x1="78.000000" y1="144.000000" x2="70.000000" y2="144.000000"  style="stroke:black; stroke-linecap:round; stroke-width:0.25;"/>
<line x1="78.000000" y1="262.000000" x2="70.000000" y2="262.000000"  style="stroke:black; stroke-linecap:round; stroke-width:0.25;"/>
<line x1="82.000000" y1="144.000000" x2="78.000000" y2="144.000000"  style="stroke:black; stroke-linecap:round; stroke-width:0.25;"/>
<line x1="110.000000" y1="140.000000" x2="106.000000" y2="140.000000"  style="stroke:black; stroke-linecap:round; stroke-width:0.25;"/>
<line x1="110.000000" y1="148.000000" x2="106.000000" y2="148.000000"  style="stroke:black; stroke-linecap:round; stroke-width:0.25;"/>
<line x1="110.000000" y1="148.000000" x2="110.000000" y2="148.000000"  style="stroke:black; stroke-linecap:round; stroke-width:0.25;"/>
<line x1="110.000000" y1="182.000000" x2="110.000000" y2="148.000000"  style="stroke:black; stroke-linecap:round; stroke-width:0.25;"/>
<line x1="118.000000" y1="88.000000" x2="118.000000" y2="88.000000"  style="stroke:black; stroke-linecap:round; stroke-width:0.25;"/>
<line x1="118.000000" y1="88.000000" x2="118.000000" y2="140.000000"  style="stroke:black; stroke-linecap:round; stroke-width:0.25;"/>
<line x1="118.000000" y1="140.000000" x2="110.000000" y2="140.000000"  style="stroke:black; stroke-linecap:round; stroke-width:0.25;"/>
<line x1="118.000000" y1="182.000000" x2="110.000000" y2="182.000000"  style="stroke:black; stroke-linecap:round; stroke-width:0.25;"/>
<line x1="128.000000" y1="182.000000" x2="118.000000" y2="182.000000"  style="stroke:black; stroke-linecap:round; stroke-width:0.25;"/>
<line x1="138.000000" y1="182.000000" x2="128.000000" y2="182.000000"  style="stroke:black; stroke-linecap:round; stroke-width:0.25;"/>
<line x1="144.000000" y1="182.000000" x2="138.000000" y2="182.000000"  style="stroke:black; stroke-linecap:round; stroke-width:0.25;"/>
<line x1="146.000000" y1="182.000000" x2="144.000000" y2="182.000000"  style="stroke:black; stroke-linecap:round; stroke-width:0.25;"/>
<line x1="146.000000" y1="186.000000" x2="146.000000" y2="202.000000"  style="stroke:black; stroke-linecap:round; stroke-width:0.25;"/>
<line x1="146.000000" y1="202.000000" x2="146.000000" y2="202.000000"  style="stroke:black; stroke-linecap:round; stroke-width:0.25;"/>
<line x1="146.000000" y1="202.000000" x2="162.900000" y2="202.000000"  style="stroke:black; stroke-linecap:round; stroke-width:0.25;"/>
<line x1="162.900000" y1="202.000000" x2="179.800000" y2="202.000000"  style="stroke:black; stroke-linecap:round; stroke-width:0.25;"/>
<line x1="166.900000" y1="182.000000" x2="146.000000" y2="182.000000"  style="stroke:black; stroke-linecap:round; stroke-width:0.25;"/>
<line x1="170.900000" y1="182.000000" x2="166.900000" y2="182.000000"  style="stroke:black; stroke-linecap:round; stroke-width:0.25;"/>
<line x1="175.800000" y1="222.000000" x2="179.800000" y2="222.000000"  style="stroke:black; stroke-linecap:round; stroke-width:0.25;"/>
<line x1="179.800000" y1="202.000000" x2="187.800000" y2="202.000000"  style="stroke:black; stroke-linecap:round; stroke-width:0.25;"/>
<line x1="179.800000" y1="222.000000" x2="187.800000" y2="222.000000"  style="stroke:black; stroke-linecap:round; stroke-width:0.25;"/>
<line x1="187.800000" y1="202.000000" x2="187.800000" y2="214.000000"  style="stroke:black; stroke-linecap:round; stroke-width:0.25;"/>
<line x1="187.800000" y1="214.000000" x2="187.800000" y2="214.000000"  style="stroke:black; stroke-linecap:round; stroke-width:0.25;"/>
<line x1="187.800000" y1="214.000000" x2="191.800000" y2="214.000000"  style="stroke:black; stroke-linecap:round; stroke-width:0.25;"/>
<line x1="187.800000" y1="222.000000" x2="191.800000" y2="222.000000"  style="stroke:black; stroke-linecap:round; stroke-width:0.25;"/>
<line x1="198.900000" y1="178.000000" x2="194.900000" y2="178.000000"  style="stroke:black; stroke-linecap:round; stroke-width:0.25;"/>
<line x1="198.900000" y1="186.000000" x2="194.900000" y2="186.000000"  style="stroke:black; stroke-linecap:round; stroke-width:0.25;"/>
<line x1="209.650000" y1="308.000000" x2="219.650000" y2="308.000000"  style="stroke:black; stroke-linecap:round; stroke-width:0.25;"/>
<line x1="215.800000" y1="218.000000" x2="219.800000" y2="218.000000"  style="stroke:black; stroke-linecap:round; stroke-width:0.25;"/>
<line x1="219.650000" y1="308.000000" x2="223.650000" y2="308.000000"  style="stroke:black; stroke-linecap:round; stroke-width:0.25;"/>
<line x1="219.800000" y1="178.000000" x2="198.900000" y2="178.000000"  style="stroke:black; stroke-linecap:round; stroke-width:0.25;"/>
<line x1="219.800000" y1="186.000000" x2="198.900000" y2="186.000000"  style="stroke:black; stroke-linecap:round; stroke-width:0.25;"/>
<line x1="219.800000" y1="186.000000" x2="219.800000" y2="186.000000"  style="stroke:black; stroke-linecap:round; stroke-width:0.25;"/>
<line x1="219.800000" y1="218.000000" x2="219.800000" y2="186.000000"  style="stroke:black; stroke-linecap:round; stroke-width:0.25;"/>
<line x1="219.800000" y1="218.000000" x2="219.800000" y2="218.000000"  style="stroke:black; stroke-linecap:round; stroke-width:0.25;"/>
<line x1="227.800000" y1="178.000000" x2="219.800000" y2="178.000000"  style="stroke:black; stroke-linecap:round; stroke-width:0.25;"/>
<line x1="227.800000" y1="178.000000" x2="227.800000" y2="178.000000"  style="stroke:black; stroke-linecap:round; stroke-width:0.25;"/>
<line x1="227.800000" y1="202.000000" x2="227.800000" y2="178.000000"  style="stroke:black; stroke-linecap:round; stroke-width:0.25;"/>
<line x1="235.800000" y1="202.000000" x2="227.800000" y2="202.000000"  style="stroke:black; stroke-linecap:round; stroke-width:0.25;"/>
<line x1="239.800000" y1="202.000000" x2="235.800000" y2="202.000000"  style="stroke:black; stroke-linecap:round; stroke-width:0.25;"/>
<line x1="242.300000" y1="88.000000" x2="118.000000" y2="88.000000"  style="stroke:black; stroke-linecap:round; stroke-width:0.25;"/>
<line x1="252.300000" y1="88.000000" x2="242.300000" y2="88.000000"  style="stroke:black; stroke-linecap:round; stroke-width:0.25;"/>
<line x1="256.300000" y1="88.000000" x2="252.300000" y2="88.000000"  style="stroke:black; stroke-linecap:round; stroke-width:0.25;"/>
<line x1="267.800000" y1="198.000000" x2="263.800000" y2="198.000000"  style="stroke:black; stroke-linecap:round; stroke-width:0.25;"/>
<line x1="267.800000" y1="206.000000" x2="263.800000" y2="206.000000"  style="stroke:black; stroke-linecap:round; stroke-width:0.25;"/>
<line x1="267.800000" y1="206.000000" x2="267.800000" y2="206.000000"  style="stroke:black; stroke-linecap:round; stroke-width:0.25;"/>
<line x1="267.800000" y1="218.000000" x2="267.800000" y2="206.000000"  style="stroke:black; stroke-linecap:round; stroke-width:0.25;"/>
<line x1="275.800000" y1="198.000000" x2="267.800000" y2="198.000000"  style="stroke:black; stroke-linecap:round; stroke-width:0.25;"/>
<line x1="275.800000" y1="218.000000" x2="267.800000" y2="218.000000"  style="stroke:black; stroke-linecap:round; stroke-width:0.25;"/>
<line x1="279.650000" y1="324.000000" x2="283.650000" y2="324.000000"  style="stroke:black; stroke-linecap:round; stroke-width:0.25;"/>
<line x1="279.800000" y1="198.000000" x2="275.800000" y2="198.000000"  style="stroke:black; stroke-linecap:round; stroke-width:0.25;"/>
<line x1="283.650000" y1="324.000000" x2="283.650000" y2="324.000000"  style="stroke:black; stroke-linecap:round; stroke-width:0.25;"/>
<line x1="283.650000" y1="324.000000" x2="287.650000" y2="324.000000"  style="stroke:black; stroke-linecap:round; stroke-width:0.25;"/>
<line x1="284.300000" y1="84.000000" x2="280.300000" y2="84.000000"  style="stroke:black; stroke-linecap:round; stroke-width:0.25;"/>
<line x1="284.300000" y1="92.000000" x2="280.300000" y2="92.000000"  style="stroke:black; stroke-linecap:round; stroke-width:0.25;"/>
<line x1="284.300000" y1="92.000000" x2="284.300000" y2="92.000000"  style="stroke:black; stroke-linecap:round; stroke-width:0.25;"/>
<line x1="284.300000" y1="120.000000" x2="284.300000" y2="92.000000"  style="stroke:black; stroke-linecap:round; stroke-width:0.25;"/>
<line x1="292.300000" y1="72.000000" x2="292.300000" y2="72.000000"  style="stroke:black; stroke-linecap:round; stroke-width:0.25;"/>
<line x1="292.300000" y1="72.000000" x2="292.300000" y2="84.000000"  style="stroke:black; stroke-linecap:round; stroke-width:0.25;"/>
<line x1="292.300000" y1="84.000000" x2="284.300000" y2="84.000000"  style="stroke:black; stroke-linecap:round; stroke-width:0.25;"/>
<line x1="292.300000" y1="120.000000" x2="284.300000" y2="120.000000"  style="stroke:black; stroke-linecap:round; stroke-width:0.25;"/>
<line x1="292.700000" y1="218.000000" x2="275.800000" y2="218.000000"  style="stroke:black; stroke-linecap:round; stroke-width:0.25;"/>
<line x1="296.300000" y1="72.000000" x2="292.300000" y2="72.000000"  style="stroke:black; stroke-linecap:round; stroke-width:0.25;"/>
<line x1="296.550000" y1="292.000000" x2="300.550000" y2="292.000000"  style="stroke:black; stroke-linecap:round; stroke-width:0.25;"/>
<line x1="300.550000" y1="292.000000" x2="317.450000" y2="292.000000"  style="stroke:black; stroke-linecap:round; stroke-width:0.25;"/>
<line x1="308.550000" y1="262.000000" x2="78.000000" y2="262.000000"  style="stroke:black; stroke-linecap:round; stroke-width:0.25;"/>
<line x1="309.600000" y1="218.000000" x2="292.700000" y2="218.000000"  style="stroke:black; stroke-linecap:round; stroke-width:0.25;"/>
<line x1="313.450000" y1="324.000000" x2="317.450000" y2="324.000000"  style="stroke:black; stroke-linecap:round; stroke-width:0.25;"/>
<line x1="317.450000" y1="292.000000" x2="325.450000" y2="292.000000"  style="stroke:black; stroke-linecap:round; stroke-width:0.25;"/>
<line x1="317.450000" y1="312.000000" x2="325.450000" y2="312.000000"  style="stroke:black; stroke-linecap:round; stroke-width:0.25;"/>
<line x1="317.450000" y1="324.000000" x2="317.450000" y2="312.000000"  style="stroke:black; stroke-linecap:round; stroke-width:0.25;"/>
<line x1="317.450000" y1="324.000000" x2="317.450000" y2="324.000000"  style="stroke:black; stroke-linecap:round; stroke-width:0.25;"/>
<line x1="319.600000" y1="218.000000" x2="309.600000" y2="218.000000"  style="stroke:black; stroke-linecap:round; stroke-width:0.25;"/>
<line x1="324.300000" y1="68.000000" x2="320.300000" y2="68.000000"  style="stroke:black; stroke-linecap:round; stroke-width:0.25;"/>
<line x1="324.300000" y1="76.000000" x2="320.300000" y2="76.000000"  style="stroke:black; stroke-linecap:round; stroke-width:0.25;"/>
<line x1="324.300000" y1="76.000000" x2="324.300000" y2="76.000000"  style="stroke:black; stroke-linecap:round; stroke-width:0.25;"/>
<line x1="324.300000" y1="88.000000" x2="324.300000" y2="76.000000"  style="stroke:black; stroke-linecap:round; stroke-width:0.25;"/>
<line x1="325.450000" y1="292.000000" x2="325.450000" y2="304.000000"  style="stroke:black; stroke-linecap:round; stroke-width:0.25;"/>
<line x1="325.450000" y1="304.000000" x2="325.450000" y2="304.000000"  style="stroke:black; stroke-linecap:round; stroke-width:0.25;"/>
<line x1="325.450000" y1="304.000000" x2="329.450000" y2="304.000000"  style="stroke:black; stroke-linecap:round; stroke-width:0.25;"/>
<line x1="325.450000" y1="312.000000" x2="329.450000" y2="312.000000"  style="stroke:black; stroke-linecap:round; stroke-width:0.25;"/>
<line x1="327.600000" y1="202.000000" x2="327.600000" y2="202.000000"  style="stroke:black; stroke-linecap:round; stroke-width:0.25;"/>
<line x1="327.600000" y1="202.000000" x2="327.600000" y2="218.000000"  style="stroke:black; stroke-linecap:round; stroke-width:0.25;"/>
<line x1="327.600000" y1="218.000000" x2="319.600000" y2="218.000000"  style="stroke:black; stroke-linecap:round; stroke-width:0.25;"/>
<line x1="331.600000" y1="202.000000" x2="327.600000" y2="202.000000"  style="stroke:black; stroke-linecap:round; stroke-width:0.25;"/>
<line x1="331.650000" y1="120.000000" x2="292.300000" y2="120.000000"  style="stroke:black; stroke-linecap:round; stroke-width:0.25;"/>
<line x1="332.300000" y1="56.000000" x2="332.300000" y2="56.000000"  style="stroke:black; stroke-linecap:round; stroke-width:0.25;"/>
<line x1="332.300000" y1="56.000000" x2="332.300000" y2="68.000000"  style="stroke:black; stroke-linecap:round; stroke-width:0.25;"/>
<line x1="332.300000" y1="68.000000" x2="324.300000" y2="68.000000"  style="stroke:black; stroke-linecap:round; stroke-width:0.25;"/>
<line x1="332.300000" y1="88.000000" x2="324.300000" y2="88.000000"  style="stroke:black; stroke-linecap:round; stroke-width:0.25;"/>
<line x1="335.650000" y1="120.000000" x2="331.650000" y2="120.000000"  style="stroke:black; stroke-linecap:round; stroke-width:0.25;"/>
<line x1="336.300000" y1="56.000000" x2="332.300000" y2="56.000000"  style="stroke:black; stroke-linecap:round; stroke-width:0.25;"/>
<line x1="352.550000" y1="88.000000" x2="332.300000" y2="88.000000"  style="stroke:black; stroke-linecap:round; stroke-width:0.25;"/>
<line x1="353.450000" y1="308.000000" x2="357.450000" y2="308.000000"  style="stroke:black; stroke-linecap:round; stroke-width:0.25;"/>
<line x1="356.550000" y1="88.000000" x2="352.550000" y2="88.000000"  style="stroke:black; stroke-linecap:round; stroke-width:0.25;"/>
<line x1="357.450000" y1="308.000000" x2="367.450000" y2="308.000000"  style="stroke:black; stroke-linecap:round; stroke-width:0.25;"/>
<line x1="367.450000" y1="308.000000" x2="539.100000" y2="308.000000"  style="stroke:black; stroke-linecap:round; stroke-width:0.25;"/>
<line x1="539.100000" y1="262.000000" x2="308.550000" y2="262.000000"  style="stroke:black; stroke-linecap:round; stroke-width:0.25;"/>
<line x1="539.100000" y1="262.000000" x2="539.100000" y2="262.000000"  style="stroke:black; stroke-linecap:round; stroke-width:0.25;"/>
<line x1="539.100000" y1="304.000000" x2="539.100000" y2="262.000000"  style="stroke:black; stroke-linecap:round; stroke-width:0.25;"/>
<line x1="539.100000" y1="308.000000" x2="541.100000" y2="308.000000"  style="stroke:black; stroke-linecap:round; stroke-width:0.25;"/>
<line x1="541.100000" y1="308.000000" x2="547.100000" y2="308.000000"  style="stroke:black; stroke-linecap:round; stroke-width:0.25;"/>
<line x1="547.100000" y1="308.000000" x2="557.100000" y2="308.000000"  style="stroke:black; stroke-linecap:round; stroke-width:0.25;"/>
<line x1="557.100000" y1="308.000000" x2="660.100000" y2="158.000000"  style="stroke:black; stroke-linecap:round; stroke-width:0.25;"/>
<line x1="557.100000" y1="308.000000" x2="660.100000" y2="178.000000"  style="stroke:black; stroke-linecap:round; stroke-width:0.25;"/>
<line x1="660.100000" y1="158.000000" x2="676.100000" y2="158.000000"  style="stroke:black; stroke-linecap:round; stroke-width:0.25;"/>
<line x1="660.100000" y1="178.000000" x2="664.100000" y2="178.000000"  style="stroke:black; stroke-linecap:round; stroke-width:0.25;"/>
<line x1="676.100000" y1="158.000000" x2="692.100000" y2="158.000000"  style="stroke:black; stroke-linecap:round; stroke-width:0.25;"/>
<line x1="688.100000" y1="178.000000" x2="692.100000" y2="178.000000"  style="stroke:black; stroke-linecap:round; stroke-width:0.25;"/>
<line x1="692.100000" y1="158.000000" x2="700.100000" y2="158.000000"  style="stroke:black; stroke-linecap:round; stroke-width:0.25;"/>
<line x1="692.100000" y1="178.000000" x2="700.100000" y2="178.000000"  style="stroke:black; stroke-linecap:round; stroke-width:0.25;"/>
<line x1="700.100000" y1="158.000000" x2="700.100000" y2="170.000000"  style="stroke:black; stroke-linecap:round; stroke-width:0.25;"/>
<line x1="700.100000" y1="170.000000" x2="700.100000" y2="170.000000"  style="stroke:black; stroke-linecap:round; stroke-width:0.25;"/>
<line x1="700.100000" y1="170.000000" x2="704.100000" y2="170.000000"  style="stroke:black; stroke-linecap:round; stroke-width:0.25;"/>
<line x1="700.100000" y1="178.000000" x2="704.100000" y2="178.000000"  style="stroke:black; stroke-linecap:round; stroke-width:0.25;"/>
<line x1="708.100000" y1="210.000000" x2="712.100000" y2="210.000000"  style="stroke:black; stroke-linecap:round; stroke-width:0.25;"/>
<line x1="712.100000" y1="210.000000" x2="732.100000" y2="210.000000"  style="stroke:black; stroke-linecap:round; stroke-width:0.25;"/>
<line x1="728.100000" y1="174.000000" x2="732.100000" y2="174.000000"  style="stroke:black; stroke-linecap:round; stroke-width:0.25;"/>
<line x1="732.100000" y1="174.000000" x2="740.100000" y2="174.000000"  style="stroke:black; stroke-linecap:round; stroke-width:0.25;"/>
<line x1="732.100000" y1="194.000000" x2="740.100000" y2="194.000000"  style="stroke:black; stroke-linecap:round; stroke-width:0.25;"/>
<line x1="732.100000" y1="210.000000" x2="732.100000" y2="194.000000"  style="stroke:black; stroke-linecap:round; stroke-width:0.25;"/>
<line x1="732.100000" y1="210.000000" x2="732.100000" y2="210.000000"  style="stroke:black; stroke-linecap:round; stroke-width:0.25;"/>
<line x1="740.100000" y1="174.000000" x2="740.100000" y2="186.000000"  style="stroke:black; stroke-linecap:round; stroke-width:0.25;"/>
<line x1="740.100000" y1="186.000000" x2="740.100000" y2="186.000000"  style="stroke:black; stroke-linecap:round; stroke-width:0.25;"/>
<line x1="740.100000" y1="186.000000" x2="744.100000" y2="186.000000"  style="stroke:black; stroke-linecap:round; stroke-width:0.25;"/>
<line x1="740.100000" y1="194.000000" x2="744.100000" y2="194.000000"  style="stroke:black; stroke-linecap:round; stroke-width:0.25;"/>
<line x1="768.100000" y1="190.000000" x2="772.100000" y2="190.000000"  style="stroke:black; stroke-linecap:round; stroke-width:0.25;"/>
<line x1="772.100000" y1="190.000000" x2="772.100000" y2="190.000000"  style="stroke:black; stroke-linecap:round; stroke-width:0.25;"/>
<line x1="772.100000" y1="190.000000" x2="776.100000" y2="190.000000"  style="stroke:black; stroke-linecap:round; stroke-width:0.25;"/>
<line x1="776.100000" y1="190.000000" x2="780.100000" y2="190.000000"  style="stroke:black; stroke-linecap:round; stroke-width:0.25;"/>
<line x1="780.100000" y1="190.000000" x2="790.100000" y2="190.000000"  style="stroke:black; stroke-linecap:round; stroke-width:0.25;"/>
</svg>
